<svg width="70" height="70" viewBox="0 0 70 70" fill="none" xmlns="http://www.w3.org/2000/svg">
<path d="M6 21.425C6 18.9253 6.99299 16.528 8.76052 14.7605C10.528 12.993 12.9253 12 15.425 12H48.775C51.2747 12 53.672 12.993 55.4395 14.7605C57.207 16.528 58.2 18.9253 58.2 21.425V38.1638C54.5807 35.849 50.2793 34.8401 46.0082 35.304C41.7371 35.7679 37.7527 37.6769 34.7148 40.7148C31.6769 43.7527 29.7679 47.7371 29.304 52.0082C28.8401 56.2793 29.849 60.5807 32.1638 64.2H15.425C12.9253 64.2 10.528 63.207 8.76052 61.4395C6.99299 59.672 6 57.2747 6 54.775V21.425ZM33.55 30.125C33.55 31.3256 34.5244 32.3 35.725 32.3H45.875C46.4518 32.3 47.0051 32.0708 47.413 31.663C47.8209 31.2551 48.05 30.7018 48.05 30.125C48.05 29.5482 47.8209 28.9949 47.413 28.587C47.0051 28.1792 46.4518 27.95 45.875 27.95H35.725C35.1482 27.95 34.5949 28.1792 34.187 28.587C33.7792 28.9949 33.55 29.5482 33.55 30.125ZM28.562 28.762C28.7757 28.5629 28.9471 28.3228 29.066 28.056C29.1848 27.7892 29.2488 27.5012 29.2539 27.2091C29.2591 26.9171 29.2053 26.627 29.096 26.3562C28.9866 26.0853 28.8237 25.8393 28.6172 25.6328C28.4107 25.4263 28.1647 25.2634 27.8938 25.154C27.623 25.0447 27.3329 24.9909 27.0409 24.9961C26.7488 25.0012 26.4608 25.0652 26.194 25.184C25.9272 25.3029 25.6871 25.4743 25.488 25.688L21.225 29.951L19.862 28.588C19.4497 28.2038 18.9044 27.9946 18.3409 28.0046C17.7774 28.0145 17.2398 28.2428 16.8413 28.6413C16.4428 29.0398 16.2145 29.5774 16.2046 30.1409C16.1947 30.7044 16.4038 31.2497 16.788 31.662L19.688 34.562C20.0958 34.9693 20.6486 35.1981 21.225 35.1981C21.8014 35.1981 22.3542 34.9693 22.762 34.562L28.562 28.762ZM28.562 41.638C28.1542 41.2307 27.6014 41.0019 27.025 41.0019C26.4486 41.0019 25.8958 41.2307 25.488 41.638L21.225 45.901L19.862 44.538C19.4497 44.1538 18.9044 43.9447 18.3409 43.9546C17.7774 43.9645 17.2398 44.1928 16.8413 44.5913C16.4428 44.9898 16.2145 45.5274 16.2046 46.0909C16.1947 46.6544 16.4038 47.1997 16.788 47.612L19.688 50.512C20.0958 50.9193 20.6486 51.1481 21.225 51.1481C21.8014 51.1481 22.3542 50.9193 22.762 50.512L28.562 44.712C28.9693 44.3042 29.1981 43.7514 29.1981 43.175C29.1981 42.5986 28.9693 42.0458 28.562 41.638ZM64 54.05C64 49.8198 62.3196 45.7629 59.3284 42.7716C56.3372 39.7804 52.2802 38.1 48.05 38.1C43.8198 38.1 39.7629 39.7804 36.7716 42.7716C33.7804 45.7629 32.1 49.8198 32.1 54.05C32.1 58.2802 33.7804 62.3372 36.7716 65.3284C39.7629 68.3196 43.8198 70 48.05 70C52.2802 70 56.3372 68.3196 59.3284 65.3284C62.3196 62.3372 64 58.2802 64 54.05ZM49.5 55.5L49.5029 62.7587C49.5029 63.1433 49.3501 63.5121 49.0782 63.784C48.8063 64.0559 48.4375 64.2087 48.0529 64.2087C47.6683 64.2087 47.2995 64.0559 47.0276 63.784C46.7557 63.5121 46.6029 63.1433 46.6029 62.7587V55.5H39.3384C38.9538 55.5 38.585 55.3472 38.3131 55.0753C38.0412 54.8034 37.8884 54.4346 37.8884 54.05C37.8884 53.6654 38.0412 53.2966 38.3131 53.0247C38.585 52.7528 38.9538 52.6 39.3384 52.6H46.6V45.35C46.6 44.9654 46.7528 44.5966 47.0247 44.3247C47.2966 44.0528 47.6654 43.9 48.05 43.9C48.4346 43.9 48.8034 44.0528 49.0753 44.3247C49.3472 44.5966 49.5 44.9654 49.5 45.35V52.6H56.7413C57.1259 52.6 57.4947 52.7528 57.7666 53.0247C58.0385 53.2966 58.1913 53.6654 58.1913 54.05C58.1913 54.4346 58.0385 54.8034 57.7666 55.0753C57.4947 55.3472 57.1259 55.5 56.7413 55.5H49.5Z" fill="white" fill-opacity="0.28"/>
</svg>
